<svg xmlns="http://www.w3.org/2000/svg" viewBox="0 0 1200 660" font-family="system-ui, -apple-system, 'PingFang SC', 'Noto Sans SC', sans-serif" font-size="12" letter-spacing="0">
  <title>Agent Note 质量要求的三层分工</title>
  <desc>规则层由 .agents/notes/README.md 与子树 AGENTS.md 拥有，可机械检查的部分由 verify-agent-note-format 与 agent-note-tree 两个门禁执行；流程层由 dsh-archive-agent-notes、dsh-find-simplifications、dsh-prose-standard、dsh-trim-cot-leakage 承担语义判断；消费层由 dsh-doc、dsh-code-review、dsh-pre-push-checks、dsh-create-upgrade-guide 与 docs/AGENTS.md 规定引用方式与 review 检查点。没有任何一层叫「写 Note 的 skill」。</desc>
  <defs>
    <marker id="arrow" viewBox="0 0 9 7" markerWidth="9" markerHeight="7" refX="8" refY="3.5" orient="auto">
      <path d="M0,0 L9,3.5 L0,7 Z" fill="#64748b"/>
    </marker>
  </defs>

  <rect width="1200" height="660" rx="8" fill="#f8fafc"/>
  <text x="600" y="38" text-anchor="middle" font-size="18" font-weight="700" fill="#0f172a">要求分三层，每层一个 owner</text>
  <text x="600" y="62" text-anchor="middle" fill="#64748b">可机械判定的部分变成门禁，需要判断的部分留在 skill 与 review 里——所以没有一篇「写 Note 的 skill」。</text>

  <rect x="30" y="86" width="1140" height="150" rx="10" fill="#eff6ff" stroke="#93c5fd"/>
  <text x="52" y="114" font-size="14" font-weight="700" fill="#1e40af">① 规则层 · 唯一完整 owner</text>
  <text x="1130" y="114" text-anchor="end" fill="#1e40af">.agents/notes/README.md + 各子树 AGENTS.md</text>
  <text x="52" y="142" fill="#334155">何时写（持久决定理由 + 机械/局部 UI 豁免）｜路径语法 {生命周期}/{类型}/yyyy-mm-dd-topic.md｜两种正文骨架｜Alternatives considered 强制</text>
  <text x="52" y="164" fill="#334155">闲置状态与类型的封闭集合｜生命周期移动即改写｜保持 current 但决策反转另写｜归档/删除判据｜新 Note 触发 supersession 检查</text>

  <rect x="52" y="184" width="1096" height="34" rx="6" fill="#dbeafe" stroke="#60a5fa"/>
  <text x="66" y="206" fill="#1e3a8a">执行者：verify-agent-note-format（头部 / 骨架 / 禁用标题 / grandfather 注释）　·　agent-note-tree（状态与类型目录树 / 文件名日期 / INDEX.md 禁令）　·　均在 doc-sync 内</text>

  <line x1="600" y1="240" x2="600" y2="266" stroke="#64748b" stroke-width="2" marker-end="url(#arrow)"/>
  <text x="614" y="258" font-size="11" fill="#64748b">结构合法 ≠ 决定正确</text>

  <rect x="30" y="272" width="1140" height="196" rx="10" fill="#fff7ed" stroke="#fdba74"/>
  <text x="52" y="300" font-size="14" font-weight="700" fill="#9a3412">② 流程层 · skill 只在四处分岔上追加语义判断</text>

  <rect x="52" y="314" width="262" height="136" rx="8" fill="#ffffff" stroke="#fed7aa"/>
  <text x="66" y="336" font-size="12" font-weight="700" fill="#9a3412">dsh-archive-agent-notes</text>
  <text x="66" y="358" fill="#334155">保留 / 归档 / 删除的判定</text>
  <text x="66" y="378" fill="#334155">按未来价值，不按字数年龄</text>
  <text x="66" y="398" fill="#334155">不朝配额归档</text>
  <text x="66" y="418" fill="#334155">封存件永久冻结</text>
  <text x="66" y="438" fill="#64748b">含校准例子（533 词该删、248 词该留）</text>

  <rect x="330" y="314" width="262" height="136" rx="8" fill="#ffffff" stroke="#fed7aa"/>
  <text x="344" y="336" font-size="12" font-weight="700" fill="#9a3412">dsh-find-simplifications</text>
  <text x="344" y="358" fill="#334155">proposal 四件必备证据：</text>
  <text x="344" y="378" fill="#334155">具体消费者证据</text>
  <text x="344" y="398" fill="#334155">被移除的维护成本</text>
  <text x="344" y="418" fill="#334155">放弃的能力 · 可观察验收</text>
  <text x="344" y="438" fill="#64748b">禁止为凑候选数建重复 Note</text>

  <rect x="608" y="314" width="262" height="136" rx="8" fill="#ffffff" stroke="#fed7aa"/>
  <text x="622" y="336" font-size="12" font-weight="700" fill="#9a3412">dsh-prose-standard</text>
  <text x="622" y="358" fill="#334155">必须留下的命题：</text>
  <text x="622" y="378" fill="#334155">rationale · 机制 · 备选方案</text>
  <text x="622" y="398" fill="#334155">后果 · 已验证证据 · 覆盖缺口</text>
  <text x="622" y="418" fill="#334155">删规划清单，不删钉住决定的证据</text>
  <text x="622" y="438" fill="#64748b">链接不能替代本地合同</text>

  <rect x="886" y="314" width="262" height="136" rx="8" fill="#ffffff" stroke="#fed7aa"/>
  <text x="900" y="336" font-size="12" font-weight="700" fill="#9a3412">dsh-trim-cot-leakage</text>
  <text x="900" y="358" fill="#334155">允许：合并 PR/issue 引用</text>
  <text x="900" y="378" fill="#334155">历史阶段名 · 审查裁决改写成理由</text>
  <text x="900" y="398" fill="#334155">严禁：索引式版本戳</text>
  <text x="900" y="418" fill="#334155">自己的修订史（属于 git）</text>
  <text x="900" y="438" fill="#64748b">由审查与语料审计执行</text>

  <line x1="600" y1="468" x2="600" y2="494" stroke="#64748b" stroke-width="2" marker-end="url(#arrow)"/>
  <text x="614" y="486" font-size="11" fill="#64748b">谁引用它、审查时查什么</text>

  <rect x="30" y="500" width="1140" height="120" rx="10" fill="#f0fdf4" stroke="#86efac"/>
  <text x="52" y="528" font-size="14" font-weight="700" fill="#166534">③ 消费层 · 别的文档 tier 怎样与 Note 交接</text>
  <text x="52" y="554" fill="#334155">dsh-create-upgrade-guide：指南超过 500 词，把 rationale 移进 Note，其余链符号、变脚本</text>
  <text x="52" y="576" fill="#334155">dsh-code-review / dsh-pre-push-checks：实现 proposed Note 的 PR 必须同 diff 改写为现在式，并对照实现核对路径、名称与机制</text>
  <text x="52" y="598" fill="#334155">dsh-doc 与 docs/AGENTS.md：文档结构规则不适用于 Note；tier 表把 rationale 指派给 Note；implemented 里的迁移计划与未来时态属于 slop</text>
</svg>
